<mxfile host="app.diagrams.net" modified="2021-12-20T01:51:31.799Z" agent="5.0 (Windows NT 10.0; Win64; x64) AppleWebKit/537.36 (KHTML, like Gecko) Chrome/96.0.4664.110 Safari/537.36" etag="W__T7KEmMpbBLb5bYUSi" version="15.8.8" type="github">
  <diagram id="C5RBs43oDa-KdzZeNtuy" name="Page-1">
    <mxGraphModel dx="1384" dy="729" grid="1" gridSize="10" guides="1" tooltips="1" connect="1" arrows="1" fold="1" page="1" pageScale="1" pageWidth="1169" pageHeight="827" math="0" shadow="0">
      <root>
        <mxCell id="WIyWlLk6GJQsqaUBKTNV-0" />
        <mxCell id="WIyWlLk6GJQsqaUBKTNV-1" parent="WIyWlLk6GJQsqaUBKTNV-0" />
        <mxCell id="NZtSvfg3ziE68KTO_1ax-0" value="Predecessor Systems&lt;br&gt;A/S 400 Reports&lt;br&gt;SAP-BI&lt;br&gt;iBi Focus" style="whiteSpace=wrap;html=1;aspect=fixed;fillColor=#f8cecc;strokeColor=#b85450;" vertex="1" parent="WIyWlLk6GJQsqaUBKTNV-1">
          <mxGeometry x="50" y="130" width="120" height="120" as="geometry" />
        </mxCell>
        <mxCell id="NZtSvfg3ziE68KTO_1ax-2" value="Unified Platform" style="whiteSpace=wrap;html=1;aspect=fixed;fillColor=#fff2cc;strokeColor=#d6b656;" vertex="1" parent="WIyWlLk6GJQsqaUBKTNV-1">
          <mxGeometry x="180" y="230" width="80" height="80" as="geometry" />
        </mxCell>
        <mxCell id="NZtSvfg3ziE68KTO_1ax-3" value="Conform to critical metrics with drill downs" style="whiteSpace=wrap;html=1;aspect=fixed;fillColor=#fff2cc;strokeColor=#d6b656;" vertex="1" parent="WIyWlLk6GJQsqaUBKTNV-1">
          <mxGeometry x="230" y="320" width="80" height="80" as="geometry" />
        </mxCell>
        <mxCell id="NZtSvfg3ziE68KTO_1ax-4" value="Agreed metric definition" style="whiteSpace=wrap;html=1;aspect=fixed;fillColor=#d5e8d4;strokeColor=#82b366;" vertex="1" parent="WIyWlLk6GJQsqaUBKTNV-1">
          <mxGeometry x="410" y="645" width="80" height="80" as="geometry" />
        </mxCell>
        <mxCell id="NZtSvfg3ziE68KTO_1ax-5" value="Validate metric list with larger group RVPs" style="whiteSpace=wrap;html=1;aspect=fixed;fillColor=#dae8fc;strokeColor=#6c8ebf;" vertex="1" parent="WIyWlLk6GJQsqaUBKTNV-1">
          <mxGeometry x="590" y="350" width="80" height="80" as="geometry" />
        </mxCell>
        <mxCell id="NZtSvfg3ziE68KTO_1ax-6" value="Validate Metric accuracy to Definition" style="whiteSpace=wrap;html=1;aspect=fixed;fillColor=#dae8fc;strokeColor=#6c8ebf;" vertex="1" parent="WIyWlLk6GJQsqaUBKTNV-1">
          <mxGeometry x="500" y="460" width="80" height="80" as="geometry" />
        </mxCell>
        <mxCell id="NZtSvfg3ziE68KTO_1ax-7" value="Iterate through compiled list" style="whiteSpace=wrap;html=1;aspect=fixed;fillColor=#fff2cc;strokeColor=#d6b656;" vertex="1" parent="WIyWlLk6GJQsqaUBKTNV-1">
          <mxGeometry x="230" y="410" width="80" height="80" as="geometry" />
        </mxCell>
        <mxCell id="NZtSvfg3ziE68KTO_1ax-8" value="Define: Critical, Key, Measurable" style="whiteSpace=wrap;html=1;aspect=fixed;fillColor=#fff2cc;strokeColor=#d6b656;" vertex="1" parent="WIyWlLk6GJQsqaUBKTNV-1">
          <mxGeometry x="320" y="460" width="80" height="80" as="geometry" />
        </mxCell>
        <mxCell id="NZtSvfg3ziE68KTO_1ax-9" value="Validate&amp;nbsp; Console Concept&amp;nbsp;" style="whiteSpace=wrap;html=1;aspect=fixed;fillColor=#dae8fc;strokeColor=#6c8ebf;" vertex="1" parent="WIyWlLk6GJQsqaUBKTNV-1">
          <mxGeometry x="500" y="550" width="80" height="80" as="geometry" />
        </mxCell>
        <mxCell id="NZtSvfg3ziE68KTO_1ax-10" value="Validate Trend Analysis" style="whiteSpace=wrap;html=1;aspect=fixed;fillColor=#dae8fc;strokeColor=#6c8ebf;" vertex="1" parent="WIyWlLk6GJQsqaUBKTNV-1">
          <mxGeometry x="590" y="450" width="80" height="80" as="geometry" />
        </mxCell>
        <mxCell id="NZtSvfg3ziE68KTO_1ax-11" value="Validate Exception to Trend Reporting" style="whiteSpace=wrap;html=1;aspect=fixed;fillColor=#dae8fc;strokeColor=#6c8ebf;" vertex="1" parent="WIyWlLk6GJQsqaUBKTNV-1">
          <mxGeometry x="685" y="390" width="80" height="80" as="geometry" />
        </mxCell>
        <mxCell id="NZtSvfg3ziE68KTO_1ax-12" value="&lt;font style=&quot;font-size: 9px&quot;&gt;Validate delivery methodology:PCv. v. Phone v. Tablet&lt;/font&gt;" style="whiteSpace=wrap;html=1;aspect=fixed;fillColor=#dae8fc;strokeColor=#6c8ebf;" vertex="1" parent="WIyWlLk6GJQsqaUBKTNV-1">
          <mxGeometry x="810" y="300" width="80" height="80" as="geometry" />
        </mxCell>
        <mxCell id="NZtSvfg3ziE68KTO_1ax-13" value="&lt;font size=&quot;1&quot;&gt;Validate Real Tme (Speed of delivery)&lt;/font&gt;" style="whiteSpace=wrap;html=1;aspect=fixed;fontSize=9;fillColor=#dae8fc;strokeColor=#6c8ebf;" vertex="1" parent="WIyWlLk6GJQsqaUBKTNV-1">
          <mxGeometry x="630" y="250" width="80" height="80" as="geometry" />
        </mxCell>
        <mxCell id="NZtSvfg3ziE68KTO_1ax-14" value="Validate report performance (Speed of application)" style="whiteSpace=wrap;html=1;aspect=fixed;fontSize=10;fillColor=#dae8fc;strokeColor=#6c8ebf;" vertex="1" parent="WIyWlLk6GJQsqaUBKTNV-1">
          <mxGeometry x="910" y="270" width="80" height="80" as="geometry" />
        </mxCell>
        <mxCell id="NZtSvfg3ziE68KTO_1ax-15" value="Validate Real Time Alerting" style="whiteSpace=wrap;html=1;aspect=fixed;fontSize=10;fillColor=#dae8fc;strokeColor=#6c8ebf;" vertex="1" parent="WIyWlLk6GJQsqaUBKTNV-1">
          <mxGeometry x="720" y="205" width="80" height="80" as="geometry" />
        </mxCell>
        <mxCell id="NZtSvfg3ziE68KTO_1ax-16" value="Validate proactive alerting" style="whiteSpace=wrap;html=1;aspect=fixed;fontSize=10;fillColor=#dae8fc;strokeColor=#6c8ebf;" vertex="1" parent="WIyWlLk6GJQsqaUBKTNV-1">
          <mxGeometry x="820" y="180" width="80" height="80" as="geometry" />
        </mxCell>
        <mxCell id="NZtSvfg3ziE68KTO_1ax-17" value="" style="shape=flexArrow;endArrow=classic;html=1;rounded=0;fontSize=10;fillColor=#e1d5e7;strokeColor=#9673a6;" edge="1" parent="WIyWlLk6GJQsqaUBKTNV-1">
          <mxGeometry width="50" height="50" relative="1" as="geometry">
            <mxPoint x="50" y="270" as="sourcePoint" />
            <mxPoint x="400" y="790" as="targetPoint" />
          </mxGeometry>
        </mxCell>
        <mxCell id="NZtSvfg3ziE68KTO_1ax-18" value="" style="shape=flexArrow;endArrow=classic;html=1;rounded=0;fontSize=10;fillColor=#e1d5e7;strokeColor=#9673a6;" edge="1" parent="WIyWlLk6GJQsqaUBKTNV-1">
          <mxGeometry width="50" height="50" relative="1" as="geometry">
            <mxPoint x="200" y="130" as="sourcePoint" />
            <mxPoint x="420" y="450" as="targetPoint" />
          </mxGeometry>
        </mxCell>
        <mxCell id="NZtSvfg3ziE68KTO_1ax-19" value="" style="shape=flexArrow;endArrow=classic;html=1;rounded=0;fontSize=10;fillColor=#e1d5e7;strokeColor=#9673a6;" edge="1" parent="WIyWlLk6GJQsqaUBKTNV-1">
          <mxGeometry width="50" height="50" relative="1" as="geometry">
            <mxPoint x="430" y="450" as="sourcePoint" />
            <mxPoint x="770" y="100" as="targetPoint" />
          </mxGeometry>
        </mxCell>
        <mxCell id="NZtSvfg3ziE68KTO_1ax-20" value="" style="shape=flexArrow;endArrow=classic;html=1;rounded=0;fontSize=10;fillColor=#e1d5e7;strokeColor=#9673a6;exitX=1;exitY=0.25;exitDx=0;exitDy=0;" edge="1" parent="WIyWlLk6GJQsqaUBKTNV-1" source="NZtSvfg3ziE68KTO_1ax-24">
          <mxGeometry width="50" height="50" relative="1" as="geometry">
            <mxPoint x="480" y="750" as="sourcePoint" />
            <mxPoint x="1060" y="360" as="targetPoint" />
          </mxGeometry>
        </mxCell>
        <mxCell id="NZtSvfg3ziE68KTO_1ax-22" value="&lt;font style=&quot;font-size: 17px&quot;&gt;V-diagram of RVP Reporting Development&amp;nbsp;&lt;/font&gt;" style="triangle;whiteSpace=wrap;html=1;fontSize=10;direction=south;fillColor=#e1d5e7;strokeColor=#9673a6;" vertex="1" parent="WIyWlLk6GJQsqaUBKTNV-1">
          <mxGeometry x="320" y="70" width="240" height="160" as="geometry" />
        </mxCell>
        <mxCell id="NZtSvfg3ziE68KTO_1ax-23" value="Design&amp;nbsp;" style="text;html=1;strokeColor=none;fillColor=none;align=center;verticalAlign=middle;whiteSpace=wrap;rounded=0;fontSize=17;" vertex="1" parent="WIyWlLk6GJQsqaUBKTNV-1">
          <mxGeometry x="150" y="540" width="60" height="30" as="geometry" />
        </mxCell>
        <mxCell id="NZtSvfg3ziE68KTO_1ax-24" value="Build" style="text;html=1;strokeColor=none;fillColor=none;align=center;verticalAlign=middle;whiteSpace=wrap;rounded=0;fontSize=17;" vertex="1" parent="WIyWlLk6GJQsqaUBKTNV-1">
          <mxGeometry x="420" y="770" width="60" height="30" as="geometry" />
        </mxCell>
        <mxCell id="NZtSvfg3ziE68KTO_1ax-25" value="Test" style="text;html=1;strokeColor=none;fillColor=none;align=center;verticalAlign=middle;whiteSpace=wrap;rounded=0;fontSize=17;" vertex="1" parent="WIyWlLk6GJQsqaUBKTNV-1">
          <mxGeometry x="740" y="540" width="60" height="30" as="geometry" />
        </mxCell>
        <mxCell id="NZtSvfg3ziE68KTO_1ax-27" value="Mock up Cosole Concept" style="whiteSpace=wrap;html=1;aspect=fixed;fillColor=#fff2cc;strokeColor=#d6b656;" vertex="1" parent="WIyWlLk6GJQsqaUBKTNV-1">
          <mxGeometry x="320" y="550" width="80" height="80" as="geometry" />
        </mxCell>
        <mxCell id="NZtSvfg3ziE68KTO_1ax-28" value="Develop Console" style="whiteSpace=wrap;html=1;aspect=fixed;fillColor=#d5e8d4;strokeColor=#82b366;" vertex="1" parent="WIyWlLk6GJQsqaUBKTNV-1">
          <mxGeometry x="410" y="550" width="80" height="80" as="geometry" />
        </mxCell>
        <mxCell id="NZtSvfg3ziE68KTO_1ax-37" value="&lt;span style=&quot;color: rgb(0 , 0 , 0) ; font-family: &amp;#34;helvetica&amp;#34; ; font-size: 17px ; font-style: normal ; font-weight: 400 ; letter-spacing: normal ; text-indent: 0px ; text-transform: none ; word-spacing: 0px ; display: inline ; float: none ; background-color: rgb(255 , 242 , 204)&quot;&gt;Design&amp;nbsp;&lt;/span&gt;" style="text;whiteSpace=wrap;html=1;fontSize=17;fillColor=#fff2cc;strokeColor=#d6b656;align=center;" vertex="1" parent="WIyWlLk6GJQsqaUBKTNV-1">
          <mxGeometry x="810" y="665" width="80" height="40" as="geometry" />
        </mxCell>
        <mxCell id="NZtSvfg3ziE68KTO_1ax-38" value="Build" style="text;html=1;strokeColor=#82b366;fillColor=#d5e8d4;align=center;verticalAlign=middle;whiteSpace=wrap;rounded=0;fontSize=17;" vertex="1" parent="WIyWlLk6GJQsqaUBKTNV-1">
          <mxGeometry x="900" y="760" width="60" height="30" as="geometry" />
        </mxCell>
        <mxCell id="NZtSvfg3ziE68KTO_1ax-39" value="Test" style="text;html=1;strokeColor=#6C8EBF;fillColor=#dae8fc;align=center;verticalAlign=middle;whiteSpace=wrap;rounded=0;fontSize=17;" vertex="1" parent="WIyWlLk6GJQsqaUBKTNV-1">
          <mxGeometry x="962" y="670" width="60" height="30" as="geometry" />
        </mxCell>
        <mxCell id="NZtSvfg3ziE68KTO_1ax-42" value="Key" style="text;html=1;align=center;verticalAlign=middle;resizable=0;points=[];autosize=1;strokeColor=none;fillColor=none;fontSize=17;" vertex="1" parent="WIyWlLk6GJQsqaUBKTNV-1">
          <mxGeometry x="890" y="615" width="50" height="30" as="geometry" />
        </mxCell>
        <mxCell id="NZtSvfg3ziE68KTO_1ax-44" value="Delivered System:&lt;br&gt;Daily Console&lt;br&gt;Conformed upon Metrics&lt;br&gt;Defined Metrics&lt;br&gt;Real Time&lt;br&gt;Proactive Alerts" style="whiteSpace=wrap;html=1;aspect=fixed;fillColor=#f8cecc;strokeColor=#b85450;" vertex="1" parent="WIyWlLk6GJQsqaUBKTNV-1">
          <mxGeometry x="1010" y="190" width="140" height="140" as="geometry" />
        </mxCell>
        <mxCell id="NZtSvfg3ziE68KTO_1ax-45" value="Understand&amp;nbsp;" style="whiteSpace=wrap;html=1;aspect=fixed;labelBackgroundColor=#F8CECC;fontSize=17;strokeColor=#b85450;fillColor=#f8cecc;" vertex="1" parent="WIyWlLk6GJQsqaUBKTNV-1">
          <mxGeometry x="670" y="630" width="110" height="110" as="geometry" />
        </mxCell>
        <mxCell id="NZtSvfg3ziE68KTO_1ax-46" value="Deliver" style="whiteSpace=wrap;html=1;aspect=fixed;labelBackgroundColor=#F8CECC;fontSize=17;strokeColor=#b85450;fillColor=#f8cecc;" vertex="1" parent="WIyWlLk6GJQsqaUBKTNV-1">
          <mxGeometry x="1050" y="630" width="110" height="110" as="geometry" />
        </mxCell>
        <mxCell id="NZtSvfg3ziE68KTO_1ax-49" value="" style="endArrow=classic;html=1;rounded=0;fontSize=17;exitX=1;exitY=0.5;exitDx=0;exitDy=0;entryX=0;entryY=0.5;entryDx=0;entryDy=0;" edge="1" parent="WIyWlLk6GJQsqaUBKTNV-1" source="NZtSvfg3ziE68KTO_1ax-45" target="NZtSvfg3ziE68KTO_1ax-37">
          <mxGeometry width="50" height="50" relative="1" as="geometry">
            <mxPoint x="510" y="460" as="sourcePoint" />
            <mxPoint x="560" y="410" as="targetPoint" />
          </mxGeometry>
        </mxCell>
        <mxCell id="NZtSvfg3ziE68KTO_1ax-51" value="" style="endArrow=classic;html=1;rounded=0;fontSize=17;exitX=1;exitY=0.5;exitDx=0;exitDy=0;" edge="1" parent="WIyWlLk6GJQsqaUBKTNV-1" source="NZtSvfg3ziE68KTO_1ax-39" target="NZtSvfg3ziE68KTO_1ax-46">
          <mxGeometry width="50" height="50" relative="1" as="geometry">
            <mxPoint x="510" y="480" as="sourcePoint" />
            <mxPoint x="560" y="430" as="targetPoint" />
          </mxGeometry>
        </mxCell>
        <mxCell id="NZtSvfg3ziE68KTO_1ax-52" value="" style="endArrow=classic;html=1;rounded=0;fontSize=17;entryX=0;entryY=0.5;entryDx=0;entryDy=0;" edge="1" parent="WIyWlLk6GJQsqaUBKTNV-1" target="NZtSvfg3ziE68KTO_1ax-38">
          <mxGeometry width="50" height="50" relative="1" as="geometry">
            <mxPoint x="850" y="705" as="sourcePoint" />
            <mxPoint x="60" y="640" as="targetPoint" />
          </mxGeometry>
        </mxCell>
        <mxCell id="NZtSvfg3ziE68KTO_1ax-53" value="" style="endArrow=classic;html=1;rounded=0;fontSize=17;exitX=1;exitY=0.5;exitDx=0;exitDy=0;entryX=0.5;entryY=1;entryDx=0;entryDy=0;" edge="1" parent="WIyWlLk6GJQsqaUBKTNV-1" source="NZtSvfg3ziE68KTO_1ax-38" target="NZtSvfg3ziE68KTO_1ax-39">
          <mxGeometry width="50" height="50" relative="1" as="geometry">
            <mxPoint x="510" y="480" as="sourcePoint" />
            <mxPoint x="560" y="430" as="targetPoint" />
          </mxGeometry>
        </mxCell>
      </root>
    </mxGraphModel>
  </diagram>
</mxfile>
